<?xml version="1.0" encoding="UTF-8"?>
<svg id="Lager_1" data-name="Lager 1" xmlns="http://www.w3.org/2000/svg" version="1.1" viewBox="0 0 1100 125.28">
  <defs>
    <style>
      .cls-1 {
        fill: #003414;
        stroke-width: 0px;
      }
    </style>
  </defs>
  <path class="cls-1" d="M147.82,16.28l-34.37,109h18.77l7.44-23.62h42.93l7.53,23.62h18.77l-34.36-109h-26.72ZM145.03,84.64l15.97-50.69,16.17,50.69h-32.14Z"/>
  <rect class="cls-1" x="224.04" y="16.28" width="18.24" height="109"/>
  <path class="cls-1" d="M339.77,74.68c4.49-6.39,6.74-14.02,6.74-22.9,0-6.01-.99-11.47-2.99-16.39-1.99-4.92-5.05-8.99-9.16-12.23-4.12-3.23-9.33-5.32-15.63-6.28-1.41-.25-2.95-.41-4.62-.49-1.67-.08-3.03-.11-4.09-.11h-45.04v109h18.24v-38.07h25.91l18.45,38.07h20.67l-20.2-41.43c4.86-2.09,8.84-5.07,11.72-9.17ZM283.23,33.39h26.04c1.01,0,2.15.04,3.41.11,1.26.08,2.42.26,3.48.57,3.03.75,5.41,2.09,7.16,4.01,1.74,1.92,2.98,4.1,3.71,6.55.73,2.45,1.1,4.83,1.1,7.15s-.37,4.69-1.1,7.12c-.73,2.42-1.97,4.59-3.71,6.51-1.74,1.92-4.13,3.25-7.16,4.01-1.06.3-2.22.51-3.48.61-1.26.1-2.4.15-3.41.15h-26.04v-36.79Z"/>
  <polygon class="cls-1" points="459.45 95.01 437.72 16.28 418.57 16.43 396.92 95.01 375.2 16.28 356.05 16.28 387.92 125.28 405.93 125.28 428.11 47.77 450.44 125.28 468.46 125.28 500.25 16.28 481.1 16.28 459.45 95.01"/>
  <polygon class="cls-1" points="512.58 125.28 582.98 125.28 582.98 108.18 530.83 108.18 530.83 77.37 573.9 77.37 573.9 60.26 530.83 60.26 530.83 33.39 582.98 33.39 582.98 16.28 512.58 16.28 512.58 125.28"/>
  <path class="cls-1" d="M627.94,16.28l-34.37,109h18.77l7.44-23.62h42.93l7.53,23.62h18.77l-34.36-109h-26.72ZM625.15,84.64l15.97-50.69,16.17,50.69h-32.14Z"/>
  <polygon class="cls-1" points="684.49 33.39 719.76 33.39 719.76 125.28 738 125.28 738 33.39 773.27 33.39 773.27 16.28 684.49 16.28 684.49 33.39"/>
  <polygon class="cls-1" points="855.25 62.15 803.63 62.15 803.63 16.28 785.38 16.28 785.38 125.28 803.63 125.28 803.63 79.26 855.25 79.26 855.25 125.28 873.42 125.28 873.42 16.28 855.25 16.28 855.25 62.15"/>
  <polygon class="cls-1" points="894.62 125.28 965.02 125.28 965.02 108.18 912.86 108.18 912.86 77.37 955.93 77.37 955.93 60.26 912.86 60.26 912.86 33.39 965.02 33.39 965.02 16.28 894.62 16.28 894.62 125.28"/>
  <path class="cls-1" d="M1057.96,74.68c4.49-6.39,6.74-14.02,6.74-22.9,0-6.01-.99-11.47-2.99-16.39-1.99-4.92-5.05-8.99-9.16-12.23-4.12-3.23-9.33-5.32-15.63-6.28-1.41-.25-2.95-.41-4.62-.49-1.67-.08-3.03-.11-4.09-.11h-45.04v109h18.24v-38.07h25.91l18.45,38.07h20.67l-20.2-41.43c4.86-2.09,8.84-5.07,11.72-9.17ZM1001.42,33.39h26.04c1.01,0,2.15.04,3.41.11,1.26.08,2.42.26,3.48.57,3.03.75,5.41,2.09,7.16,4.01,1.74,1.92,2.98,4.1,3.71,6.55.73,2.45,1.1,4.83,1.1,7.15s-.37,4.69-1.1,7.12c-.73,2.42-1.97,4.59-3.71,6.51-1.74,1.92-4.13,3.25-7.16,4.01-1.06.3-2.22.51-3.48.61-1.26.1-2.4.15-3.41.15h-26.04v-36.79Z"/>
  <path class="cls-1" d="M121.09,16.28H39.03C17.51,16.28,0,33.79,0,55.31v69.97h21.13V34.63h99.96v-18.35Z"/>
  <path class="cls-1" d="M39.3,91.83v33.45h21.14v-54.17h48.14v-18.31h-30.25c-21.52,0-39.03,17.51-39.03,39.03Z"/>
  <path class="cls-1" d="M1083.54,0c-8.98-.17-16.7,7.55-16.5,16.32-.2,8.81,7.51,16.41,16.5,16.24,8.94.17,16.62-7.42,16.45-16.24.16-8.77-7.51-16.49-16.45-16.32ZM1083.54,29.65c-7.38.12-13.46-6.11-13.33-13.33-.12-7.21,5.95-13.54,13.33-13.37,7.38-.17,13.41,6.16,13.29,13.37.12,7.21-5.91,13.45-13.29,13.33Z"/>
  <path class="cls-1" d="M1083.59,22.48c-3.04,0-5.06-2.32-5.06-6.16s2.11-6.45,5.1-6.45c2.24,0,3.72,1.1,4.51,3.29l2.87-.72c-.97-3.16-3.63-5.06-7.21-5.06-4.81,0-8.44,3.5-8.44,8.6,0,5.69,3.12,9.2,8.26,9.2,3.84,0,6.75-2.28,7.68-5.73l-2.95-.89c-.64,2.36-2.45,3.92-4.77,3.92Z"/>
</svg>